<svg width="24" height="24" viewBox="0 0 24 24" fill="none" xmlns="http://www.w3.org/2000/svg">
<path fill-rule="evenodd" clip-rule="evenodd" d="M9.06703 13.5699L7.22803 11.1249L8.57803 10.6719C8.82303 10.5899 9.09203 10.6279 9.30403 10.7749L10.476 11.5839L13.295 10.3429L10.35 6.61193L12.748 6.10193L16.621 9.13493L20.751 7.48893C21.762 7.08593 22.878 7.75993 22.991 8.84193V8.84193C23.067 9.55993 22.664 10.2439 21.998 10.5259L14.595 13.6599C14.405 13.7399 14.203 13.7839 13.997 13.7889L9.74303 13.8949C9.47803 13.9039 9.22603 13.7819 9.06703 13.5699Z" stroke="#7D848D" stroke-width="1.4" stroke-linecap="round" stroke-linejoin="round"/>
<path d="M20.035 7.79996C18.59 4.96096 15.648 3.01196 12.245 3.01196C7.415 3.01196 3.5 6.92896 3.5 11.762C3.5 16.594 7.415 20.512 12.245 20.512C17.075 20.512 20.99 16.595 20.99 11.762C20.99 11.501 20.973 11.245 20.951 10.99" stroke="#7D848D" stroke-width="1.4" stroke-linecap="round" stroke-linejoin="round"/>
<path d="M3.52002 12.349C1.65602 13.716 0.647024 15.233 1.09702 16.293C1.73502 17.873 5.33502 17.908 9.13802 16.371" stroke="#7D848D" stroke-width="1.4" stroke-linecap="round" stroke-linejoin="round"/>
</svg>
