<svg width="16" height="22" viewBox="0 0 16 22" fill="none" xmlns="http://www.w3.org/2000/svg">
<path d="M15.75 10C15.75 9.58579 15.4142 9.25 15 9.25C14.5858 9.25 14.25 9.58579 14.25 10H15.75ZM1.75 10C1.75 9.58579 1.41421 9.25 1 9.25C0.585786 9.25 0.25 9.58579 0.25 10H1.75ZM11 21.75C11.4142 21.75 11.75 21.4142 11.75 21C11.75 20.5858 11.4142 20.25 11 20.25V21.75ZM5 20.25C4.58579 20.25 4.25 20.5858 4.25 21C4.25 21.4142 4.58579 21.75 5 21.75V20.25ZM11.25 5V11H12.75V5H11.25ZM4.75 11V5H3.25V11H4.75ZM8 14.25C6.20507 14.25 4.75 12.7949 4.75 11H3.25C3.25 13.6234 5.37665 15.75 8 15.75V14.25ZM11.25 11C11.25 12.7949 9.79493 14.25 8 14.25V15.75C10.6234 15.75 12.75 13.6234 12.75 11H11.25ZM8 1.75C9.79493 1.75 11.25 3.20507 11.25 5H12.75C12.75 2.37665 10.6234 0.25 8 0.25V1.75ZM8 0.25C5.37665 0.25 3.25 2.37665 3.25 5H4.75C4.75 3.20507 6.20507 1.75 8 1.75V0.25ZM14.25 10V11H15.75V10H14.25ZM1.75 11V10H0.25V11H1.75ZM8 17.25C4.54822 17.25 1.75 14.4518 1.75 11H0.25C0.25 15.2802 3.71979 18.75 8 18.75V17.25ZM14.25 11C14.25 14.4518 11.4518 17.25 8 17.25V18.75C12.2802 18.75 15.75 15.2802 15.75 11H14.25ZM7.25 18V21H8.75V18H7.25ZM8 21.75H11V20.25H8V21.75ZM8 20.25H5V21.75H8V20.25Z" fill="white"/>
</svg>
