<svg width="22" height="22" viewBox="0 0 22 22" fill="none" xmlns="http://www.w3.org/2000/svg">
<path d="M21.75 11C21.75 10.5858 21.4142 10.25 21 10.25C20.5858 10.25 20.25 10.5858 20.25 11H21.75ZM11 1.75C11.4142 1.75 11.75 1.41421 11.75 1C11.75 0.585786 11.4142 0.25 11 0.25V1.75ZM8.15467 14.9896L8.04861 14.2471H8.04861L8.15467 14.9896ZM7.01044 13.8453L6.26797 13.7393L7.01044 13.8453ZM8.01164 9.69746L7.48131 9.16714L8.01164 9.69746ZM7.43952 10.8417L8.18199 10.9478L7.43952 10.8417ZM12.3025 13.9884L12.8329 14.5187L12.3025 13.9884ZM11.1583 14.5605L11.2644 15.3029L11.1583 14.5605ZM20.4076 3.02275L19.8772 3.55308V3.55308L20.4076 3.02275ZM20.4076 5.88334L19.8772 5.35301L20.4076 5.88334ZM18.9773 1.59245L19.5076 1.06212V1.06212L18.9773 1.59245ZM16.1167 1.59245L16.647 2.12278L16.1167 1.59245ZM15.4364 3.02275C15.4364 2.60854 15.1006 2.27275 14.6864 2.27275C14.2721 2.27275 13.9364 2.60854 13.9364 3.02275L15.4364 3.02275ZM18.9773 8.06364C19.3915 8.06364 19.7273 7.72785 19.7273 7.31364C19.7273 6.89943 19.3915 6.56364 18.9773 6.56364V8.06364ZM20.25 11V17H21.75V11H20.25ZM17 20.25H5V21.75H17V20.25ZM1.75 17V5H0.25V17H1.75ZM5 1.75H11V0.25H5V1.75ZM1.75 5C1.75 3.20507 3.20507 1.75 5 1.75V0.25C2.37665 0.25 0.25 2.37665 0.25 5H1.75ZM5 20.25C3.20507 20.25 1.75 18.7949 1.75 17H0.25C0.25 19.6234 2.37665 21.75 5 21.75V20.25ZM20.25 17C20.25 18.7949 18.7949 20.25 17 20.25V21.75C19.6234 21.75 21.75 19.6234 21.75 17H20.25ZM18.4469 2.12278L19.8772 3.55308L20.9379 2.49242L19.5076 1.06212L18.4469 2.12278ZM19.8772 5.35301L11.7722 13.458L12.8329 14.5187L20.9379 6.41367L19.8772 5.35301ZM8.54197 10.2278L16.647 2.12278L15.5863 1.06212L7.48131 9.16714L8.54197 10.2278ZM11.0522 13.818L8.04861 14.2471L8.26074 15.732L11.2644 15.3029L11.0522 13.818ZM7.7529 13.9514L8.18199 10.9478L6.69706 10.7356L6.26797 13.7393L7.7529 13.9514ZM8.04861 14.2471C7.87611 14.2717 7.72825 14.1239 7.7529 13.9514L6.26797 13.7393C6.10191 14.9017 7.09829 15.8981 8.26074 15.732L8.04861 14.2471ZM7.48131 9.16714C7.05709 9.59136 6.78191 10.1417 6.69706 10.7356L8.18199 10.9478C8.22093 10.6752 8.34725 10.4225 8.54197 10.2278L7.48131 9.16714ZM11.7722 13.458C11.5775 13.6528 11.3248 13.7791 11.0522 13.818L11.2644 15.3029C11.8583 15.2181 12.4086 14.9429 12.8329 14.5187L11.7722 13.458ZM19.8772 3.55308C20.3743 4.05011 20.3743 4.85597 19.8772 5.35301L20.9379 6.41367C22.0207 5.33085 22.0207 3.57524 20.9379 2.49242L19.8772 3.55308ZM19.5076 1.06212C18.4248 -0.0207061 16.6692 -0.0207063 15.5863 1.06212L16.647 2.12278C17.144 1.62574 17.9499 1.62574 18.4469 2.12278L19.5076 1.06212ZM14.6864 3.02275C13.9364 3.02275 13.9364 3.02312 13.9364 3.0235C13.9364 3.02363 13.9364 3.02401 13.9364 3.02428C13.9364 3.02482 13.9364 3.02537 13.9364 3.02595C13.9364 3.02711 13.9364 3.02836 13.9364 3.0297C13.9364 3.03237 13.9364 3.03541 13.9365 3.0388C13.9366 3.04558 13.9368 3.05377 13.9371 3.06334C13.9377 3.08247 13.9388 3.10711 13.9408 3.13689C13.9448 3.19642 13.9522 3.27666 13.9662 3.37465C13.9942 3.57049 14.0485 3.83834 14.1536 4.15386C14.3648 4.7875 14.7796 5.6069 15.5863 6.41367L16.647 5.35301C16.0235 4.72949 15.723 4.1186 15.5767 3.67951C15.503 3.45867 15.4679 3.27955 15.4512 3.16252C15.4428 3.10406 15.4391 3.06139 15.4375 3.03711C15.4367 3.02499 15.4364 3.0175 15.4363 3.01498C15.4363 3.01372 15.4363 3.01371 15.4363 3.01499C15.4363 3.01563 15.4363 3.01659 15.4363 3.01789C15.4363 3.01853 15.4364 3.01926 15.4364 3.02007C15.4364 3.02047 15.4364 3.0209 15.4364 3.02135C15.4364 3.02157 15.4364 3.02192 15.4364 3.02203C15.4364 3.02239 15.4364 3.02275 14.6864 3.02275ZM15.5863 6.41367C16.3931 7.22044 17.2125 7.63515 17.8461 7.84637C18.1617 7.95154 18.4295 8.00578 18.6254 8.03375C18.7233 8.04775 18.8036 8.05522 18.8631 8.05919C18.8929 8.06117 18.9175 8.06228 18.9367 8.0629C18.9462 8.06321 18.9544 8.06339 18.9612 8.0635C18.9646 8.06356 18.9676 8.06359 18.9703 8.06361C18.9716 8.06362 18.9729 8.06363 18.974 8.06363C18.9746 8.06364 18.9752 8.06364 18.9757 8.06364C18.976 8.06364 18.9764 8.06364 18.9765 8.06364C18.9769 8.06364 18.9773 8.06364 18.9773 7.31364C18.9773 6.56364 18.9776 6.56364 18.978 6.56364C18.9781 6.56364 18.9784 6.56364 18.9787 6.56364C18.9791 6.56364 18.9795 6.56364 18.9799 6.56365C18.9807 6.56365 18.9815 6.56365 18.9821 6.56366C18.9834 6.56367 18.9844 6.56368 18.985 6.56369C18.9863 6.56371 18.9863 6.56372 18.985 6.56368C18.9825 6.5636 18.975 6.56332 18.9629 6.56251C18.9386 6.56089 18.8959 6.55718 18.8375 6.54883C18.7205 6.53211 18.5413 6.49695 18.3205 6.42334C17.8814 6.27698 17.2705 5.97654 16.647 5.35301L15.5863 6.41367Z" fill="#1B1E28"/>
</svg>
